<?xml version="1.0" encoding="UTF-8"?>
<svg version="1.1" xmlns="http://www.w3.org/2000/svg" width="600" height="297">
<path d="M0 0 C198 0 396 0 600 0 C600 98.01 600 196.02 600 297 C402 297 204 297 0 297 C0 198.99 0 100.98 0 0 Z " fill="#F0F0F0" transform="translate(0,0)"/>
<path d="M0 0 C-0.96749423 2.15825637 -1.78093311 3.7900609 -3.5 5.4375 C-6.20672157 8.25700163 -7 11.15613913 -7 15 C-3.66564695 13.58143752 -1.80434174 11.90068437 0.5 9.125 C1.11230469 8.41859375 1.72460938 7.7121875 2.35546875 6.984375 C4.09518671 4.94411431 4.09518671 4.94411431 5.8125 2.375 C8.57455404 0.63885174 9.52781413 0.99375654 12.6875 1.5625 C14.46586371 2.01291526 16.23725925 2.49186968 18 3 C18.71285156 3.18820313 19.42570312 3.37640625 20.16015625 3.5703125 C31.15625779 6.81775931 41.36086381 12.53227211 50 20 C50.73605469 20.58136719 51.47210938 21.16273437 52.23046875 21.76171875 C65.38627026 32.56260915 75.69611144 50.82068485 77.80517578 67.78808594 C79.38989143 85.77997037 78.3132245 101.77504195 70 118 C69.54625 118.91652344 69.0925 119.83304687 68.625 120.77734375 C58.28290884 140.81514538 41.05001379 153.50049453 20 161 C9.34170986 164.28042612 -0.97664977 164.3374495 -12 164 C-12 163.34 -12 162.68 -12 162 C-12.66 162 -13.32 162 -14 162 C-14 162.66 -14 163.32 -14 164 C-19.63127236 163.46190064 -24.48118559 162.41112411 -29.75 160.375 C-30.44174316 160.10993652 -31.13348633 159.84487305 -31.84619141 159.57177734 C-42.58993264 155.31744435 -52.78174076 149.21825924 -61 141 C-61.08685603 139.43827255 -61.10702219 137.87270656 -61.09765625 136.30859375 C-61.09443359 135.36435547 -61.09121094 134.42011719 -61.08789062 133.44726562 C-61.07951172 132.45404297 -61.07113281 131.46082031 -61.0625 130.4375 C-61.05798828 129.44041016 -61.05347656 128.44332031 -61.04882812 127.41601562 C-61.03700007 124.94395151 -61.02051849 122.47200482 -61 120 C-64.6327391 122.42182607 -64.68131947 123.50445117 -65.6875 127.625 C-65.93886719 128.62789062 -66.19023438 129.63078125 -66.44921875 130.6640625 C-66.63097656 131.43492187 -66.81273438 132.20578125 -67 133 C-78.6093544 122.17815104 -84.73671003 103.82448616 -85.3359375 88.1796875 C-85.68387331 64.18535327 -79.84061087 42.78978776 -63 25 C-52.62583946 15 -52.62583946 15 -49 15 C-48.484375 14.443125 -47.96875 13.88625 -47.4375 13.3125 C-35.67276604 2.15108573 -15.61165157 -0.62446606 0 0 Z " fill="#050505" transform="translate(129,61)"/>
<path d="M0 0 C-0.96749423 2.15825637 -1.78093311 3.7900609 -3.5 5.4375 C-5.47610992 7.49594783 -6.21749634 9.26123718 -7 12 C-6.73316406 12.73089844 -6.46632813 13.46179688 -6.19140625 14.21484375 C-5.92582888 18.07926545 -7.47061348 19.36467227 -9.92529297 22.21386719 C-10.79758545 23.19081543 -10.79758545 23.19081543 -11.6875 24.1875 C-18.37953551 32.03787799 -24.16651191 40.25998174 -29.70019531 48.95800781 C-30.52513368 50.25398537 -31.35702864 51.54558166 -32.19824219 52.83105469 C-33.23481925 54.4165693 -34.24348418 56.02023382 -35.25 57.625 C-35.79140625 58.48351562 -36.3328125 59.34203125 -36.890625 60.2265625 C-39.28662314 66.21655785 -37.91667417 72.41662915 -36.6875 78.5625 C-36.48229736 79.60047729 -36.48229736 79.60047729 -36.27294922 80.65942383 C-35.98992683 82.08704594 -35.70380379 83.51405692 -35.41455078 84.94042969 C-35.03313742 86.83536673 -34.66998902 88.733956 -34.30859375 90.6328125 C-30.56191664 110.11553345 -26.58454781 130.03651338 -18 148 C-17.02359694 150.13767176 -16.06519076 152.2836558 -15.125 154.4375 C-14.69445312 155.40558594 -14.26390625 156.37367188 -13.8203125 157.37109375 C-12.95835423 160.13346478 -12.98100388 161.3392879 -14 164 C-19.63127236 163.46190064 -24.48118559 162.41112411 -29.75 160.375 C-30.44174316 160.10993652 -31.13348633 159.84487305 -31.84619141 159.57177734 C-42.58993264 155.31744435 -52.78174076 149.21825924 -61 141 C-61.08685603 139.43827255 -61.10702219 137.87270656 -61.09765625 136.30859375 C-61.09443359 135.36435547 -61.09121094 134.42011719 -61.08789062 133.44726562 C-61.07951172 132.45404297 -61.07113281 131.46082031 -61.0625 130.4375 C-61.05798828 129.44041016 -61.05347656 128.44332031 -61.04882812 127.41601562 C-61.03700007 124.94395151 -61.02051849 122.47200482 -61 120 C-64.6327391 122.42182607 -64.68131947 123.50445117 -65.6875 127.625 C-65.93886719 128.62789062 -66.19023438 129.63078125 -66.44921875 130.6640625 C-66.63097656 131.43492187 -66.81273438 132.20578125 -67 133 C-78.6093544 122.17815104 -84.73671003 103.82448616 -85.3359375 88.1796875 C-85.68387331 64.18535327 -79.84061087 42.78978776 -63 25 C-52.62583946 15 -52.62583946 15 -49 15 C-48.484375 14.443125 -47.96875 13.88625 -47.4375 13.3125 C-35.67276604 2.15108573 -15.61165157 -0.62446606 0 0 Z " fill="#DFDFDF" transform="translate(129,61)"/>
<path d="M0 0 C1.53928615 6.53696846 2.6611642 13.03478336 3.5625 19.6875 C3.81318357 21.50399171 4.06446957 23.32040041 4.31640625 25.13671875 C4.43330811 25.98137695 4.55020996 26.82603516 4.6706543 27.69628906 C5.06754463 30.47246195 5.52617322 33.23601047 6 36 C7.19459273 44.22941662 3.89164829 49.7575853 0.16015625 56.828125 C-8.5006384 73.29085533 -14.59545365 93.00021155 -15.65625 111.6171875 C-16 114 -16 114 -18 117 C-23.65429094 108.67254755 -28.75111282 100.60651348 -32 91 C-32.31839844 90.08992188 -32.63679688 89.17984375 -32.96484375 88.2421875 C-39.01786159 67.32161893 -35.47196404 44.7197279 -25.26171875 25.86328125 C-20.77501454 17.98749544 -10.00948781 0 0 0 Z " fill="#070707" transform="translate(79,77)"/>
<path d="M0 0 C0.66 0 1.32 0 2 0 C2.21914062 1.28648437 2.43828125 2.57296875 2.6640625 3.8984375 C4.73392214 15.77981043 7.17411736 27.52341907 9.98095703 39.25341797 C12.06407772 48.00523902 12.06407772 48.00523902 12.55859375 51.98046875 C12.9745822 54.82612425 13.61087092 56.8173435 14.875 59.375 C17.4150081 64.79307482 19.16431221 70.36151799 20.96875 76.05859375 C21.3090625 77.11175781 21.649375 78.16492188 22 79.25 C22.309375 80.22453125 22.61875 81.1990625 22.9375 82.203125 C24.01546839 85.04071827 25.42954819 87.41232372 27 90 C27 90.66 27 91.32 27 92 C11.1955558 93.21572648 -3.55049205 83.28335818 -15.20703125 73.56640625 C-16.1591901 72.73456377 -17.10597305 71.89402695 -18 71 C-18.23269475 64.49747441 -17.69648491 58.30273729 -16.75 51.875 C-16.61650146 50.96137695 -16.48300293 50.04775391 -16.34545898 49.10644531 C-11.99689793 20.76505254 -11.99689793 20.76505254 -4 14 C-1.3125 13.3125 -1.3125 13.3125 1 13 C1 12.01 1 11.02 1 10 C0.01 9.34 -0.98 8.68 -2 8 C-1.125 2.25 -1.125 2.25 0 0 Z " fill="#050505" transform="translate(86,131)"/>
<path d="M0 0 C1.40958984 -0.00193359 1.40958984 -0.00193359 2.84765625 -0.00390625 C3.83636719 -0.00003906 4.82507813 0.00382813 5.84375 0.0078125 C7.32681641 0.00201172 7.32681641 0.00201172 8.83984375 -0.00390625 C9.77957031 -0.00261719 10.71929687 -0.00132812 11.6875 0 C12.55568359 0.00112793 13.42386719 0.00225586 14.31835938 0.00341797 C16.34375 0.1328125 16.34375 0.1328125 17.34375 1.1328125 C17.44262792 2.87663785 17.47174032 4.62446793 17.47314453 6.37109375 C17.47629669 7.48895264 17.47944885 8.60681152 17.48269653 9.75854492 C17.4806723 10.97517822 17.47864807 12.19181152 17.4765625 13.4453125 C17.47799759 15.30410034 17.47799759 15.30410034 17.47946167 17.20043945 C17.48014374 19.82669531 17.47878538 22.45285883 17.47412109 25.07910156 C17.46842381 28.45209964 17.47170302 31.82501815 17.47769356 35.19801331 C17.4821677 38.40544927 17.47903882 41.6128755 17.4765625 44.8203125 C17.47858673 46.0369458 17.48061096 47.2535791 17.48269653 48.50708008 C17.47954437 49.62493896 17.47639221 50.74279785 17.47314453 51.89453125 C17.47234894 52.88412842 17.47155334 53.87372559 17.47073364 54.89331055 C17.34375 57.1328125 17.34375 57.1328125 16.34375 58.1328125 C14.79419441 58.23180773 13.24021327 58.26360774 11.6875 58.265625 C10.27791016 58.26755859 10.27791016 58.26755859 8.83984375 58.26953125 C7.85113281 58.26566406 6.86242187 58.26179688 5.84375 58.2578125 C4.85503906 58.26167969 3.86632812 58.26554687 2.84765625 58.26953125 C1.90792969 58.26824219 0.96820313 58.26695312 0 58.265625 C-0.86818359 58.26449707 -1.73636719 58.26336914 -2.63085938 58.26220703 C-4.65625 58.1328125 -4.65625 58.1328125 -5.65625 57.1328125 C-5.75512792 55.38898715 -5.78424032 53.64115707 -5.78564453 51.89453125 C-5.78879669 50.77667236 -5.79194885 49.65881348 -5.79519653 48.50708008 C-5.7931723 47.29044678 -5.79114807 46.07381348 -5.7890625 44.8203125 C-5.79001923 43.58112061 -5.79097595 42.34192871 -5.79196167 41.06518555 C-5.79264374 38.43892969 -5.79128538 35.81276617 -5.78662109 33.18652344 C-5.78092381 29.81352536 -5.78420302 26.44060685 -5.79019356 23.06761169 C-5.7946677 19.86017573 -5.79153882 16.6527495 -5.7890625 13.4453125 C-5.79108673 12.2286792 -5.79311096 11.0120459 -5.79519653 9.75854492 C-5.79204437 8.64068604 -5.78889221 7.52282715 -5.78564453 6.37109375 C-5.78484894 5.38149658 -5.78405334 4.39189941 -5.78323364 3.37231445 C-5.55233479 -0.69985128 -3.58907975 0.00466287 0 0 Z " fill="#E3E3E3" transform="translate(164.65625,138.8671875)"/>
<path d="M0 0 C4.27478575 2.70598088 7.08239204 6.61788826 9.01171875 11.2734375 C9.97677653 18.29296301 9.48017008 24.32488984 5.64453125 30.36328125 C1.93348001 34.70467852 -3.27402481 37.76062103 -8.96875 38.546875 C-15.26005092 38.83638619 -19.1537754 37.28574847 -23.98828125 33.2734375 C-29.64746634 27.16747464 -30.40034757 22.59377533 -30.2265625 14.3984375 C-29.76134561 8.29723233 -27.35115317 5.44687012 -22.98828125 1.4609375 C-15.98772909 -4.54521805 -7.99263172 -3.9335465 0 0 Z " fill="#090909" transform="translate(362.98828125,137.7265625)"/>
<path d="M0 0 C4.54154478 -0.08735463 9.08287232 -0.14051247 13.625 -0.1875 C15.55279297 -0.22520508 15.55279297 -0.22520508 17.51953125 -0.26367188 C19.38544922 -0.27817383 19.38544922 -0.27817383 21.2890625 -0.29296875 C23.00150146 -0.31653442 23.00150146 -0.31653442 24.74853516 -0.34057617 C28.6062789 0.06350496 32.18337297 1.18337297 35 4 C35.29339895 6.9339895 35.50460337 9.14415963 35 12 C32.5 15 32.5 15 30 17 C30.94875 17.598125 31.8975 18.19625 32.875 18.8125 C36 21 36 21 38 24 C38.25760279 26.69452521 38.08900053 29.28548375 38 32 C37.34 32 36.68 32 36 32 C35.835 32.598125 35.67 33.19625 35.5 33.8125 C33.15642442 37.23021438 29.88527086 38.08869926 26 39 C21.49143945 39.34853765 17.01845872 39.28432412 12.5 39.1875 C10.69402344 39.16719727 10.69402344 39.16719727 8.8515625 39.14648438 C5.90057027 39.11135352 2.95052588 39.06215996 0 39 C0 38.34 0 37.68 0 37 C1.65 37 3.3 37 5 37 C5 25.12 5 13.24 5 1 C3.35 1 1.7 1 0 1 C0 0.67 0 0.34 0 0 Z " fill="#111111" transform="translate(231,136)"/>
<path d="M0 0 C-1.29434348 2.88595246 -2.60047157 4.7608178 -4.9375 6.875 C-18.65162211 20.24980363 -30.11077098 37.6737819 -40 54 C-40.66 53.67 -41.32 53.34 -42 53 C-42.57836914 50.953125 -42.57836914 50.953125 -43.03515625 48.25 C-43.2043457 47.25613281 -43.37353516 46.26226562 -43.54785156 45.23828125 C-43.71768555 44.16964844 -43.88751953 43.10101563 -44.0625 42 C-44.2387793 40.92105469 -44.41505859 39.84210938 -44.59667969 38.73046875 C-45.99334203 29.82773641 -46.75536641 21.00251625 -47 12 C-32.9035021 3.36949108 -16.54243804 -0.66169752 0 0 Z " fill="#080808" transform="translate(129,61)"/>
<path d="M0 0 C4.18087152 -0.07441989 8.3613873 -0.12872818 12.54272461 -0.16479492 C13.96369141 -0.1798376 15.38461213 -0.20027704 16.80541992 -0.22631836 C18.85346886 -0.26290347 20.9009015 -0.27977097 22.94921875 -0.29296875 C24.79519653 -0.31653442 24.79519653 -0.31653442 26.6784668 -0.34057617 C31.0041733 0.10296375 33.37997994 1.82688203 36.8125 4.3125 C38.70664661 7.00418202 38.51214964 8.79906477 38 12 C35.625 14.75 35.625 14.75 33 17 C32.34 17.66 31.68 18.32 31 19 C31.804375 19.598125 32.60875 20.19625 33.4375 20.8125 C37.35490427 24.61924313 36.90072123 29.84652934 37 35 C38.98491642 34.73323796 38.98491642 34.73323796 41 34 C41.33 33.01 41.66 32.02 42 31 C42.66 31 43.32 31 44 31 C43.69209738 33.84809926 43.34521809 35.58286148 41.5 37.8125 C37.70615597 39.61457591 34.11434379 39.83194452 30 39 C25.21035322 34.44983556 24.78684613 30.50770982 24.28125 24.21484375 C24.2334259 22.02929332 24.2334259 22.02929332 23 21 C20.36 20.67 17.72 20.34 15 20 C15 25.61 15 31.22 15 37 C16.32 37 17.64 37 19 37 C19 37.66 19 38.32 19 39 C12.4 39 5.8 39 -1 39 C-1 38.34 -1 37.68 -1 37 C0.65 37 2.3 37 4 37 C4 25.12 4 13.24 4 1 C2.68 0.67 1.36 0.34 0 0 Z " fill="#181818" transform="translate(436,136)"/>
<path d="M0 0 C4.30495015 -0.09935088 8.60928183 -0.17169268 12.91503906 -0.21972656 C14.37772252 -0.23976332 15.84032666 -0.26700104 17.30273438 -0.30175781 C19.4129601 -0.35063225 21.52212136 -0.37304659 23.6328125 -0.390625 C24.90012207 -0.41157227 26.16743164 -0.43251953 27.47314453 -0.45410156 C31.62897028 0.0809833 33.76518736 1.38859749 37 4 C38.44430855 6.88861709 38.37688506 8.79647701 38 12 C35.625 14.75 35.625 14.75 33 17 C32.34 17.66 31.68 18.32 31 19 C31.804375 19.598125 32.60875 20.19625 33.4375 20.8125 C37.35490427 24.61924313 36.90072123 29.84652934 37 35 C38.98491642 34.73323796 38.98491642 34.73323796 41 34 C41.33 33.01 41.66 32.02 42 31 C42.66 31 43.32 31 44 31 C43.69209738 33.84809926 43.34521809 35.58286148 41.5 37.8125 C37.80215093 39.56897831 34.00567841 39.89563584 30 39 C26.98359184 36.80042449 26.11098597 35.44777097 25.20703125 31.80078125 C25.07683594 30.64964844 24.94664062 29.49851563 24.8125 28.3125 C24.67334687 24.33513094 24.67334687 24.33513094 23 21 C20.36 20.67 17.72 20.34 15 20 C15 25.61 15 31.22 15 37 C16.32 37 17.64 37 19 37 C19 37.66 19 38.32 19 39 C12.4 39 5.8 39 -1 39 C-1 38.34 -1 37.68 -1 37 C0.65 37 2.3 37 4 37 C4 25.12 4 13.24 4 1 C2.68 0.67 1.36 0.34 0 0 Z " fill="#171717" transform="translate(280,136)"/>
<path d="M0 0 C3.47914941 -0.02887814 6.95826831 -0.04675687 10.4375 -0.0625 C11.92733398 -0.07506836 11.92733398 -0.07506836 13.44726562 -0.08789062 C14.39150391 -0.09111328 15.33574219 -0.09433594 16.30859375 -0.09765625 C17.62041626 -0.10551147 17.62041626 -0.10551147 18.95874023 -0.11352539 C21 0 21 0 22 1 C22.09795311 2.37609882 22.12798088 3.75713882 22.12939453 5.13671875 C22.13254669 6.01432861 22.13569885 6.89193848 22.13894653 7.79614258 C22.1369223 8.75029053 22.13489807 9.70443848 22.1328125 10.6875 C22.13424759 12.14675903 22.13424759 12.14675903 22.13571167 13.63549805 C22.13639358 15.696778 22.13453853 17.75806008 22.13037109 19.81933594 C22.125023 22.98637688 22.13031572 26.153276 22.13671875 29.3203125 C22.13605797 31.31770865 22.13477681 33.31510471 22.1328125 35.3125 C22.13483673 36.26664795 22.13686096 37.2207959 22.13894653 38.20385742 C22.13579437 39.08146729 22.13264221 39.95907715 22.12939453 40.86328125 C22.12859894 41.63969971 22.12780334 42.41611816 22.12698364 43.21606445 C22 45 22 45 21 46 C19.45044441 46.09899523 17.89646327 46.13079524 16.34375 46.1328125 C14.93416016 46.13474609 14.93416016 46.13474609 13.49609375 46.13671875 C12.50738281 46.13285156 11.51867187 46.12898438 10.5 46.125 C9.51128906 46.12886719 8.52257812 46.13273437 7.50390625 46.13671875 C6.56417969 46.13542969 5.62445313 46.13414062 4.65625 46.1328125 C3.78806641 46.13168457 2.91988281 46.13055664 2.02539062 46.12939453 C0 46 0 46 -1 45 C-1.09784502 43.65985714 -1.12797977 42.31465651 -1.12939453 40.97094727 C-1.13254669 40.11658585 -1.13569885 39.26222443 -1.13894653 38.38197327 C-1.1369223 37.45283615 -1.13489807 36.52369904 -1.1328125 35.56640625 C-1.13376923 34.61813461 -1.13472595 33.66986298 -1.13571167 32.69285583 C-1.13639363 30.68285048 -1.13453823 28.67284294 -1.13037109 26.6628418 C-1.12502896 23.5792141 -1.1303125 20.49573247 -1.13671875 17.41210938 C-1.13605786 15.46354134 -1.13477646 13.5149734 -1.1328125 11.56640625 C-1.13483673 10.63929337 -1.13686096 9.71218048 -1.13894653 8.75697327 C-1.13579437 7.89945969 -1.13264221 7.04194611 -1.12939453 6.15844727 C-1.12859894 5.40201431 -1.12780334 4.64558136 -1.12698364 3.8662262 C-1 2 -1 2 0 0 Z " fill="#DEDEDE" transform="translate(133,151)"/>
<path d="M0 0 C6.27 0 12.54 0 19 0 C17.68 0.33 16.36 0.66 15 1 C15.33 5.95 15.66 10.9 16 16 C17.98195646 13.87754286 19.96064257 11.75219732 21.9375 9.625 C22.50146484 9.02171875 23.06542969 8.4184375 23.64648438 7.796875 C24.18466797 7.21679688 24.72285156 6.63671875 25.27734375 6.0390625 C25.77484131 5.50490723 26.27233887 4.97075195 26.78491211 4.42041016 C28.10293508 2.9954525 28.10293508 2.9954525 29 1 C27.68 0.67 26.36 0.34 25 0 C29.29 0 33.58 0 38 0 C38 0.33 38 0.66 38 1 C37.01 1.144375 36.02 1.28875 35 1.4375 C29.48648483 2.93708593 26.40866508 7.69711369 23 12 C24.69210553 15.71901269 26.97134118 18.9828092 29.3125 22.3125 C29.71549316 22.88774414 30.11848633 23.46298828 30.53369141 24.05566406 C31.68907215 25.70381492 32.84453397 27.35190894 34 29 C34.52722656 29.78246094 35.05445313 30.56492188 35.59765625 31.37109375 C38.05407735 35.09181146 38.05407735 35.09181146 42 37 C42 37.66 42 38.32 42 39 C35.73 39 29.46 39 23 39 C23 38.34 23 37.68 23 37 C23.66 37 24.32 37 25 37 C23.68889201 35.01989841 22.37618664 33.04088963 21.0625 31.0625 C20.50272461 30.21655273 20.50272461 30.21655273 19.93164062 29.35351562 C18.14034283 26.53966389 18.14034283 26.53966389 16 24 C15.67 28.29 15.34 32.58 15 37 C16.32 37 17.64 37 19 37 C19 37.66 19 38.32 19 39 C12.73 39 6.46 39 0 39 C0 38.34 0 37.68 0 37 C1.32 37 2.64 37 4 37 C4 25.12 4 13.24 4 1 C2.68 0.67 1.36 0.34 0 0 Z " fill="#0C0C0C" transform="translate(383,136)"/>
<path d="M0 0 C0.87454834 0.00523682 1.74909668 0.01047363 2.65014648 0.01586914 C3.50036377 0.0183667 4.35058105 0.02086426 5.2265625 0.0234375 C6.85742798 0.03709351 6.85742798 0.03709351 8.52124023 0.05102539 C11.96561523 0.07165039 15.40999023 0.09227539 18.95874023 0.11352539 C18.95874023 11.00352539 18.95874023 21.89352539 18.95874023 33.11352539 C13.79217773 33.14446289 13.79217773 33.14446289 8.52124023 33.17602539 C7.43399658 33.18512939 6.34675293 33.1942334 5.2265625 33.20361328 C3.95123657 33.20735962 3.95123657 33.20735962 2.65014648 33.21118164 C1.77559814 33.21641846 0.9010498 33.22165527 0 33.22705078 C-2.04125977 33.11352539 -2.04125977 33.11352539 -3.04125977 32.11352539 C-3.14146906 29.83404748 -3.1720728 27.55145404 -3.17407227 25.26977539 C-3.17502899 24.58548462 -3.17598572 23.90119385 -3.17697144 23.19616699 C-3.17765306 21.74690662 -3.17579999 20.29764321 -3.17163086 18.84838867 C-3.16628229 16.62289611 -3.17157636 14.39760538 -3.17797852 12.17211914 C-3.17731773 10.76717078 -3.17603656 9.36222254 -3.17407227 7.95727539 C-3.17294434 6.67014648 -3.17181641 5.38301758 -3.1706543 4.05688477 C-2.99964143 0.16682613 -2.99964143 0.16682613 0 0 Z " fill="#E0E0E0" transform="translate(109.041259765625,163.886474609375)"/>
<path d="M0 0 C4.29 0 8.58 0 13 0 C13 16.5 13 33 13 50 C8.71 50 4.42 50 0 50 C0 33.5 0 17 0 0 Z " fill="#000000" transform="translate(164,143)"/>
<path d="M0 0 C10.89 0 21.78 0 33 0 C33 3.96 33 7.92 33 12 C31.77503707 10.1625556 30.59564016 8.29237027 29.5 6.375 C28.21973738 3.8942773 28.21973738 3.8942773 26 3 C24.12943209 2.7724985 22.25314042 2.59037189 20.375 2.4375 C18.60125 2.293125 16.8275 2.14875 15 2 C15 6.95 15 11.9 15 17 C16.98 16.67 18.96 16.34 21 16 C21.66 13.69 22.32 11.38 23 9 C23.66 9 24.32 9 25 9 C25 14.61 25 20.22 25 26 C24.34 26 23.68 26 23 26 C22.67 23.69 22.34 21.38 22 19 C19.69 19 17.38 19 15 19 C15 24.94 15 30.88 15 37 C16.711875 36.87625 18.42375 36.7525 20.1875 36.625 C21.63189453 36.52058594 21.63189453 36.52058594 23.10546875 36.4140625 C26.04551171 35.99348955 28.33683752 35.30334983 31 34 C32.24174796 32.0998823 32.24174796 32.0998823 33 30 C33.66 29.01 34.32 28.02 35 27 C35 30.96 35 34.92 35 39 C23.45 39 11.9 39 0 39 C0 38.34 0 37.68 0 37 C1.32 37 2.64 37 4 37 C4 25.12 4 13.24 4 1 C2.68 0.67 1.36 0.34 0 0 Z " fill="#000000" transform="translate(489,136)"/>
<path d="M0 0 C6.93 0 13.86 0 21 0 C19.68 0.33 18.36 0.66 17 1 C17.3609375 1.54269531 17.721875 2.08539063 18.09375 2.64453125 C18.5578125 3.35996094 19.021875 4.07539063 19.5 4.8125 C19.9640625 5.52019531 20.428125 6.22789062 20.90625 6.95703125 C22 9 22 9 22 12 C25.27286682 9.2180632 26.96427697 5.72045933 29 2 C27.68 2 26.36 2 25 2 C25 1.34 25 0.68 25 0 C29.29 0 33.58 0 38 0 C38 0.33 38 0.66 38 1 C36.02 1 34.04 1 32 1 C31.7525 1.70125 31.505 2.4025 31.25 3.125 C30 6 30 6 27.8125 8.875 C25.7511756 11.86725209 25.7511756 11.86725209 25.875 15.25 C27.15856005 19.52853349 29.05243369 22.81465849 31.453125 26.55859375 C32.80091624 28.68578953 33.93633111 30.81477767 35.0625 33.0625 C36.7115013 36.21498206 36.7115013 36.21498206 39.75 36.9375 C40.4925 36.958125 41.235 36.97875 42 37 C42 37.66 42 38.32 42 39 C34.74 39 27.48 39 20 39 C20 38.34 20 37.68 20 37 C21.32 37 22.64 37 24 37 C22.02 33.37 20.04 29.74 18 26 C14.17946076 27.27351308 13.76978625 28.62637525 11.8125 32.0625 C11.28269531 32.98160156 10.75289062 33.90070313 10.20703125 34.84765625 C9.80871094 35.55792969 9.41039062 36.26820313 9 37 C10.65 37 12.3 37 14 37 C14 37.66 14 38.32 14 39 C9.38 39 4.76 39 0 39 C0 38.34 0 37.68 0 37 C2.31 37 4.62 37 7 37 C7.226875 36.34 7.45375 35.68 7.6875 35 C9.11608897 31.73465379 10.95570962 29.11034028 13.07421875 26.2578125 C14.47994817 22.82949349 13.86686806 20.569235 13 17 C11.8305113 14.44049239 10.42237318 12.075094 8.9375 9.6875 C5 3.21923077 5 3.21923077 5 1 C3.35 1 1.7 1 0 1 C0 0.67 0 0.34 0 0 Z " fill="#0A0A0A" transform="translate(531,136)"/>
<path d="M0 0 C2.99271824 0.15953829 3.95634903 0.42651086 6.5 2.1875 C9.85476751 7.15255591 9.2455482 13.15461533 9.25 18.9375 C9.26224609 19.77087891 9.27449219 20.60425781 9.28710938 21.46289062 C9.30010695 26.94353459 9.25142386 32.15472443 5.3125 36.375 C2.26741588 37.89754206 0.42316872 38.06011145 -2.9375 37.5 C-5.62305447 34.85153799 -6.82714124 33.17627633 -7.43920898 29.42553711 C-7.43735596 28.3041333 -7.43550293 27.18272949 -7.43359375 26.02734375 C-7.43423828 24.79822266 -7.43488281 23.56910156 -7.43554688 22.30273438 C-7.41556641 21.02720703 -7.39558594 19.75167969 -7.375 18.4375 C-7.38208984 17.15810547 -7.38917969 15.87871094 -7.39648438 14.56054688 C-7.33281013 5.2298207 -7.33281013 5.2298207 -5.65649414 2.13500977 C-3.9375 0.5 -3.9375 0.5 0 0 Z " fill="#E9E9E9" transform="translate(351.9375,136.5)"/>
<path d="M0 0 C4.29 0 8.58 0 13 0 C13 12.21 13 24.42 13 37 C8.71 37 4.42 37 0 37 C0 24.79 0 12.58 0 0 Z " fill="#0B0B0B" transform="translate(137,156)"/>
<path d="M0 0 C5.28 0 10.56 0 16 0 C16 4.95 16 9.9 16 15 C14.68 15 13.36 15 12 15 C11.505 11.535 11.505 11.535 11 8 C10.14019531 8.73863281 9.28039062 9.47726563 8.39453125 10.23828125 C2.2114487 15.54662367 -3.97763646 20.84799834 -10.1875 26.125 C-10.72721436 26.58559814 -11.26692871 27.04619629 -11.82299805 27.52075195 C-18.28424922 33 -18.28424922 33 -23 33 C-24.37482707 31.36739286 -25.70647667 29.69774938 -27 28 C-29.05624805 26.83599333 -29.05624805 26.83599333 -31 26 C-31.45890625 26.433125 -31.9178125 26.86625 -32.390625 27.3125 C-33.00421875 27.869375 -33.6178125 28.42625 -34.25 29 C-34.85328125 29.556875 -35.4565625 30.11375 -36.078125 30.6875 C-38 32 -38 32 -42 32 C-41.50971384 27.75573178 -40.44544451 25.98207963 -37.1875 23.25 C-36.15689453 22.36054688 -36.15689453 22.36054688 -35.10546875 21.453125 C-32.93585009 19.95572585 -31.64068711 19.10541665 -29 19 C-26.98562191 20.66097843 -25.46559804 22.54065687 -23.78125 24.53125 C-22.13955111 26.20924976 -22.13955111 26.20924976 -20.09375 25.96484375 C-17.33902358 24.69540825 -15.31624989 23.02372944 -13 21.0625 C-12.04222656 20.25941406 -11.08445313 19.45632812 -10.09765625 18.62890625 C-9.06510087 17.75260805 -8.0325489 16.87630584 -7 16 C-5.34919444 14.61121155 -3.69607006 13.22527468 -2.04101562 11.84155273 C-0.50223733 10.55416133 1.03218354 9.26156706 2.56640625 7.96875 C5 6 5 6 7 5 C4.69 4.67 2.38 4.34 0 4 C0 2.68 0 1.36 0 0 Z " fill="#E0E0E0" transform="translate(158,113)"/>
<path d="M0 0 C1.86094772 7.3197277 2.55761615 14.46783285 3 22 C0.98177083 21.67447917 -1.03645833 21.34895833 -3.0546875 21.0234375 C-3.69664063 21.01570313 -4.33859375 21.00796875 -5 21 C-5.66 21.66 -6.32 22.32 -7 23 C-8.65984798 23.68346682 -10.32836805 24.34588315 -12 25 C-13.40291133 25.65164019 -14.79843909 26.31933494 -16.1875 27 C-16.86167969 27.33 -17.53585938 27.66 -18.23046875 28 C-20.17086636 28.99239039 -20.17086636 28.99239039 -22 31 C-24.625 31.125 -24.625 31.125 -27 31 C-23.71603568 22.08178318 -11.31294923 0 0 0 Z " fill="#060606" transform="translate(79,77)"/>
<path d="M0 0 C2.97 0 5.94 0 9 0 C10.07666895 12.34324048 10.10159237 24.61701934 10 37 C6.7 37 3.4 37 0 37 C0 24.79 0 12.58 0 0 Z " fill="#020202" transform="translate(236,137)"/>
<path d="M0 0 C2.97 0 5.94 0 9 0 C9 12.21 9 24.42 9 37 C5.7 37 2.4 37 -1 37 C-0.67 24.79 -0.34 12.58 0 0 Z " fill="#010101" transform="translate(441,137)"/>
<path d="M0 0 C2.97 0 5.94 0 9 0 C9 12.21 9 24.42 9 37 C5.7 37 2.4 37 -1 37 C-0.67 24.79 -0.34 12.58 0 0 Z " fill="#000000" transform="translate(285,137)"/>
<path d="M0 0 C4.29 0 8.58 0 13 0 C13 16.5 13 33 13 50 C8.71 50 4.42 50 0 50 C0 33.5 0 17 0 0 Z M1 1 C1 11.89 1 22.78 1 34 C2.98 33.34 4.96 32.68 7 32 C7 31.34 7 30.68 7 30 C8.65 29.34 10.3 28.68 12 28 C12 19.09 12 10.18 12 1 C8.37 1 4.74 1 1 1 Z " fill="#1C1C1C" transform="translate(164,143)"/>
<path d="M0 0 C0.99 0.33 1.98 0.66 3 1 C3.01458252 1.6798999 3.02916504 2.3597998 3.04418945 3.06030273 C3.1193642 6.18656282 3.21579232 9.31183482 3.3125 12.4375 C3.33505859 13.50677734 3.35761719 14.57605469 3.38085938 15.67773438 C3.60589715 22.36749371 4.55330188 27.76190372 7 34 C3.56729557 33.93134591 0.94832211 33.81345915 -1.73046875 31.515625 C-7.13755243 25.26743941 -8.60625148 20.60641444 -8.53125 12.28125 C-7.69162015 7.09530095 -4.8899056 4.32087864 -1 1 C-0.67 0.67 -0.34 0.34 0 0 Z " fill="#060606" transform="translate(341,140)"/>
<path d="M0 0 C3.96 0 7.92 0 12 0 C12 7.59 12 15.18 12 23 C8.04 23 4.08 23 0 23 C0 15.41 0 7.82 0 0 Z " fill="#000000" transform="translate(111,169)"/>
<path d="M0 0 C0.33 0 0.66 0 1 0 C1.18175781 1.23234375 1.36351563 2.4646875 1.55078125 3.734375 C2.7792621 11.89175222 4.04837053 19.94470467 6.1875 27.921875 C6.99841484 30.99399467 7.72230157 34.07615203 8.43164062 37.17285156 C11.29051597 49.61834173 14.47625689 61.44136143 20 73 C20.97640306 75.13767176 21.93480924 77.2836558 22.875 79.4375 C23.30554688 80.40558594 23.73609375 81.37367188 24.1796875 82.37109375 C25.04164577 85.13346478 25.01899612 86.3392879 24 89 C21.36 88.67 18.72 88.34 16 88 C16 87.67 16 87.34 16 87 C17.98 87 19.96 87 22 87 C21.61328125 86.26136719 21.2265625 85.52273437 20.828125 84.76171875 C15.63221524 74.63998364 12.04952605 64.45058623 8.83203125 53.5546875 C8.2436465 51.09252274 8.2436465 51.09252274 7 50 C6.56426342 48.05015716 6.17989029 46.08886808 5.8125 44.125 C4.79582454 38.76837416 3.65890894 33.44980742 2.43359375 28.13671875 C2.15733154 26.93192871 1.88106934 25.72713867 1.59643555 24.48583984 C1.03596738 22.05353411 0.46851403 19.62282649 -0.10620117 17.19384766 C-0.36506104 16.06382324 -0.6239209 14.93379883 -0.890625 13.76953125 C-1.12813477 12.75479736 -1.36564453 11.74006348 -1.61035156 10.69458008 C-1.99709464 8.02009174 -1.85701358 6.52362117 -1 4 C-0.814375 3.2575 -0.62875 2.515 -0.4375 1.75 C-0.293125 1.1725 -0.14875 0.595 0 0 Z " fill="#BFBFBF" transform="translate(91,136)"/>
<path d="M0 0 C8 0 8 0 11 2 C13.68652977 6.02979465 13.40344574 8.23934031 13 13 C12.34 13 11.68 13 11 13 C10.67 13.99 10.34 14.98 10 16 C8 17 8 17 0 17 C0 11.39 0 5.78 0 0 Z " fill="#D8D8D8" transform="translate(450,137)"/>
<path d="M0 0 C8 0 8 0 11 2 C13.68652977 6.02979465 13.40344574 8.23934031 13 13 C12.34 13 11.68 13 11 13 C10.67 13.99 10.34 14.98 10 16 C8 17 8 17 0 17 C0 11.39 0 5.78 0 0 Z " fill="#DBDBDB" transform="translate(294,137)"/>
<path d="M0 0 C7 0 7 0 9.4375 1.3125 C11.97379983 5.6749357 11.72286969 10.08895747 11 15 C9.4375 17.6875 9.4375 17.6875 7 19 C4.69 19 2.38 19 0 19 C0 12.73 0 6.46 0 0 Z " fill="#E6E6E6" transform="translate(246,154)"/>
<path d="M0 0 C3.36431061 0.45463657 6.11147715 1.21508432 9 3 C10.484375 5.09375 10.484375 5.09375 11.75 7.5 C12.17796875 8.2940625 12.6059375 9.088125 13.046875 9.90625 C14 12 14 12 14 14 C7.42684522 14.36517527 2.20514474 13.13619737 -4 11 C-2.68 10.67 -1.36 10.34 0 10 C-0.350625 9.443125 -0.70125 8.88625 -1.0625 8.3125 C-2.22672585 5.44074289 -1.8706847 3.92866672 -1 1 C-0.67 0.67 -0.34 0.34 0 0 Z " fill="#111111" transform="translate(99,209)"/>
<path d="M0 0 C5.28 0 10.56 0 16 0 C16 4.95 16 9.9 16 15 C14.68 15 13.36 15 12 15 C11.67 12.69 11.34 10.38 11 8 C8.69 9.65 6.38 11.3 4 13 C3.34 12.34 2.68 11.68 2 11 C3.65 9.02 5.3 7.04 7 5 C4.69 4.67 2.38 4.34 0 4 C0 2.68 0 1.36 0 0 Z " fill="#E8E8E8" transform="translate(158,113)"/>
<path d="M0 0 C2.77181969 2.6178297 5.03158432 5.04830544 7.125 8.25 C8.77064122 11.26003892 8.77064122 11.26003892 12 12 C12 12.66 12 13.32 12 14 C5.73 14 -0.54 14 -7 14 C-7 13.34 -7 12.68 -7 12 C-6.34 12 -5.68 12 -5 12 C-5.66 10.35 -6.32 8.7 -7 7 C-1.25 4 -1.25 4 1 4 C0.67 2.68 0.34 1.36 0 0 Z " fill="#212121" transform="translate(413,161)"/>
<path d="M0 0 C6 0 6 0 8.375 1.5625 C10.6085569 4.91283535 10.49398209 7.0481433 10 11 C8.9375 13.4375 8.9375 13.4375 7 15 C4.69 15 2.38 15 0 15 C0 10.05 0 5.1 0 0 Z " fill="#DDDDDD" transform="translate(246,137)"/>
<path d="M0 0 C10.89 0 21.78 0 33 0 C33 3.96 33 7.92 33 12 C31.77503707 10.1625556 30.59564016 8.29237027 29.5 6.375 C28.21973738 3.8942773 28.21973738 3.8942773 26 3 C24.12943209 2.7724985 22.25314042 2.59037189 20.375 2.4375 C18.60125 2.293125 16.8275 2.14875 15 2 C15 6.95 15 11.9 15 17 C14.67 17 14.34 17 14 17 C14 11.72 14 6.44 14 1 C11.03 1 8.06 1 5 1 C5 12.88 5 24.76 5 37 C4.67 37 4.34 37 4 37 C4 25.12 4 13.24 4 1 C2.68 0.67 1.36 0.34 0 0 Z " fill="#333333" transform="translate(489,136)"/>
<path d="M0 0 C2.97 0 5.94 0 9 0 C9 2.97 9 5.94 9 9 C7.29650391 9.62648437 7.29650391 9.62648437 5.55859375 10.265625 C3.55084199 11.2993669 3.55084199 11.2993669 2 13 C0.94675127 16.9004673 1.02107079 20.72892952 1.0625 24.75 C1.04638672 25.82894531 1.03027344 26.90789062 1.01367188 28.01953125 C0.97834299 30.68097393 0.97493391 33.33855261 1 36 C0.67 36 0.34 36 0 36 C0 24.12 0 12.24 0 0 Z " fill="#080808" transform="translate(236,137)"/>
<path d="M0 0 C0.33 0 0.66 0 1 0 C1 5.94 1 11.88 1 18 C2.711875 17.87625 4.42375 17.7525 6.1875 17.625 C7.15042969 17.55539063 8.11335938 17.48578125 9.10546875 17.4140625 C12.04551171 16.99348955 14.33683752 16.30334983 17 15 C18.24174796 13.0998823 18.24174796 13.0998823 19 11 C19.66 10.01 20.32 9.02 21 8 C21 11.96 21 15.92 21 20 C9.45 20 -2.1 20 -14 20 C-14 19.34 -14 18.68 -14 18 C-7.07 18.495 -7.07 18.495 0 19 C0 12.73 0 6.46 0 0 Z " fill="#363636" transform="translate(503,155)"/>
<path d="M0 0 C0.33 0 0.66 0 1 0 C1.11275269 0.9115686 1.11275269 0.9115686 1.2277832 1.84155273 C2.51771698 12.19319821 3.81432525 22.53689243 5.625 32.8125 C5.74786377 33.51624756 5.87072754 34.21999512 5.99731445 34.94506836 C6.65200555 38.58068526 6.65200555 38.58068526 8 42 C5 41 5 41 3 39 C2.40508888 36.44783131 1.91820059 33.95674857 1.5 31.375 C1.37254395 30.62387939 1.24508789 29.87275879 1.11376953 29.09887695 C0.02373344 22.51948511 -0.81279312 15.91794085 -1.5703125 9.29296875 C-1.89954905 6.76981959 -2.2998822 4.43812954 -3 2 C-2.34 2 -1.68 2 -1 2 C-0.67 1.34 -0.34 0.68 0 0 Z " fill="#BEBEBE" transform="translate(81,74)"/>
<path d="M0 0 C2 2 2 2 2.3125 4.9375 C2 8 2 8 0.8125 9.875 C-1.65507108 11.40659584 -3.14519831 11.42822025 -6 11 C-7.8125 9.875 -7.8125 9.875 -9 8 C-9.1875 4.8125 -9.1875 4.8125 -9 2 C-5.88401212 0.15348866 -3.61754103 -0.38079379 0 0 Z " fill="#E5E5E5" transform="translate(78,115)"/>
<path d="M0 0 C3.92488093 3.70060202 7.02215543 7.4906925 10 12 C10 12.66 10 13.32 10 14 C9.34 14 8.68 14 8 14 C7.67 14.66 7.34 15.32 7 16 C6.01 16 5.02 16 4 16 C4 15.34 4 14.68 4 14 C2.68 14 1.36 14 0 14 C0 9.38 0 4.76 0 0 Z " fill="#E1E1E1" transform="translate(398,159)"/>
<path d="M0 0 C0.7734375 -0.01417969 1.546875 -0.02835938 2.34375 -0.04296875 C4.5 0.1875 4.5 0.1875 7.5 2.1875 C4.67829997 3.12806668 3.30750656 3.22343495 0.4375 3.0625 C-0.861875 3.10375 -2.16125 3.145 -3.5 3.1875 C-5.72535794 6.52553691 -5.78978404 7.81569711 -5.9140625 11.73046875 C-5.97207031 13.34018555 -5.97207031 13.34018555 -6.03125 14.98242188 C-6.07765625 16.66174805 -6.07765625 16.66174805 -6.125 18.375 C-6.18300781 20.07172852 -6.18300781 20.07172852 -6.2421875 21.80273438 C-6.33652533 24.5974925 -6.42211652 27.39224278 -6.5 30.1875 C-6.83 30.1875 -7.16 30.1875 -7.5 30.1875 C-7.5 22.2675 -7.5 14.3475 -7.5 6.1875 C-11.91160934 7.29040233 -12.06494866 7.7562913 -14.5 11.1875 C-15.16 11.1875 -15.82 11.1875 -16.5 11.1875 C-15.13981009 8.06786045 -13.66739866 6.17915178 -11.0625 4 C-10.46566406 3.49082031 -9.86882812 2.98164063 -9.25390625 2.45703125 C-6.26911854 0.29655017 -3.57221041 0.02976842 0 0 Z " fill="#444444" transform="translate(351.5,134.8125)"/>
<path d="M0 0 C0.99 0.33 1.98 0.66 3 1 C3 6.61 3 12.22 3 18 C2.67 18 2.34 18 2 18 C2 16.02 2 14.04 2 12 C0.68 11.34 -0.64 10.68 -2 10 C-2 9.34 -2 8.68 -2 8 C-2.99 8 -3.98 8 -5 8 C-6.00259507 11.00778521 -6.30314642 13.53820647 -6.5625 16.6875 C-6.64628906 17.68136719 -6.73007812 18.67523438 -6.81640625 19.69921875 C-6.87699219 20.45847656 -6.93757813 21.21773437 -7 22 C-7.33 22 -7.66 22 -8 22 C-9.07211906 10.83634752 -9.07211906 10.83634752 -6.4765625 6.390625 C-4.73963138 4.44809795 -2.98051731 2.69080135 -1 1 C-0.67 0.67 -0.34 0.34 0 0 Z " fill="#161616" transform="translate(341,140)"/>
<path d="M0 0 C3 0.25 3 0.25 5 2.25 C4.6730244 4.86580479 4.17960932 6.89078137 3 9.25 C0.125 9.375 0.125 9.375 -3 9.25 C-5 7.25 -5 7.25 -5.25 4.75 C-4.86630891 0.91308908 -3.76694968 0.31391247 0 0 Z " fill="#E1E1E1" transform="translate(93,87.75)"/>
<path d="M0 0 C0.33 0 0.66 0 1 0 C1.33 4.29 1.66 8.58 2 13 C-0.60951236 14.30475618 -2.52701285 14.11301572 -5.4453125 14.09765625 C-7.05986328 14.09282227 -7.05986328 14.09282227 -8.70703125 14.08789062 C-9.83496094 14.07951172 -10.96289062 14.07113281 -12.125 14.0625 C-13.26066406 14.05798828 -14.39632812 14.05347656 -15.56640625 14.04882812 C-18.37765638 14.03701615 -21.1888023 14.02054507 -24 14 C-24 13.67 -24 13.34 -24 13 C-14.1 12.505 -14.1 12.505 -4 12 C-3.71125 10.39125 -3.4225 8.7825 -3.125 7.125 C-2.25 2.25 -2.25 2.25 0 0 Z " fill="#202020" transform="translate(158,184)"/>
<path d="M0 0 C2.43194894 2.43194894 3.33893831 4.71418779 4.6875 7.875 C5.14511719 8.92429688 5.60273437 9.97359375 6.07421875 11.0546875 C7.00062999 14.00200428 7.12150295 15.18604713 6 18 C3.36 17.67 0.72 17.34 -2 17 C-2 16.67 -2 16.34 -2 16 C-0.02 16 1.96 16 4 16 C3.54367188 15.18015625 3.08734375 14.3603125 2.6171875 13.515625 C2.04226562 12.43796875 1.46734375 11.3603125 0.875 10.25 C0.29492188 9.18265625 -0.28515625 8.1153125 -0.8828125 7.015625 C-2 4 -2 4 -1.1796875 1.609375 C-0.79039063 1.07828125 -0.40109375 0.5471875 0 0 Z " fill="#B2B2B2" transform="translate(109,207)"/>
<path d="M0 0 C0.33 0.99 0.66 1.98 1 3 C1.66 3.33 2.32 3.66 3 4 C2.443125 4.495 1.88625 4.99 1.3125 5.5 C-1.65522266 8.70834882 -3.77984841 12.25121945 -6 16 C-4.35 16 -2.7 16 -1 16 C-1 16.66 -1 17.32 -1 18 C-5.62 18 -10.24 18 -15 18 C-15 17.34 -15 16.68 -15 16 C-12.69 16 -10.38 16 -8 16 C-7.773125 15.34 -7.54625 14.68 -7.3125 14 C-5.87370695 10.71133018 -4.08501729 7.86260797 -2.12109375 4.8671875 C-0.84348324 2.89250091 -0.84348324 2.89250091 0 0 Z " fill="#3D3D3D" transform="translate(546,157)"/>
<path d="M0 0 C3.93265896 -0.04947698 7.86519714 -0.08575578 11.7980957 -0.10986328 C13.79319618 -0.12485495 15.78820946 -0.15026731 17.78320312 -0.17578125 C19.66362305 -0.18544922 19.66362305 -0.18544922 21.58203125 -0.1953125 C22.73936768 -0.20578613 23.8967041 -0.21625977 25.08911133 -0.22705078 C28 0 28 0 31 2 C30.030625 2.12375 29.06125 2.2475 28.0625 2.375 C26.5465625 2.684375 26.5465625 2.684375 25 3 C24.67 3.66 24.34 4.32 24 5 C23.62875 4.525625 23.2575 4.05125 22.875 3.5625 C20.62243117 1.4178599 20.62243117 1.4178599 15 1 C15 5.95 15 10.9 15 16 C14.67 16 14.34 16 14 16 C14 11.05 14 6.1 14 1 C9.38 1 4.76 1 0 1 C0 0.67 0 0.34 0 0 Z " fill="#1D1D1D" transform="translate(231,136)"/>
<path d="M0 0 C0.66 0 1.32 0 2 0 C2 5.61 2 11.22 2 17 C1.34 17 0.68 17 0 17 C-0.33 14.69 -0.66 12.38 -1 10 C-3.31 10 -5.62 10 -8 10 C-8 9.34 -8 8.68 -8 8 C-6.02 7.67 -4.04 7.34 -2 7 C-1.34 4.69 -0.68 2.38 0 0 Z " fill="#303030" transform="translate(512,145)"/>
<path d="M0 0 C0.66 0 1.32 0 2 0 C2.18175781 0.65226563 2.36351563 1.30453125 2.55078125 1.9765625 C3.69139882 5.94240205 4.77961313 9.57555121 6.6875 13.25 C8.18514728 16.38792763 8.24533559 18.56530168 8 22 C2.73271998 17.73601141 1.34668447 10.31905789 0 4 C0 2.68 0 1.36 0 0 Z " fill="#C9C9C9" transform="translate(101,188)"/>
<path d="M0 0 C0.99 0.33 1.98 0.66 3 1 C2.7073985 4.51121797 2.1900372 5.80482666 -0.3125 8.375 C-3 10 -3 10 -5.3125 9.75 C-5.869375 9.5025 -6.42625 9.255 -7 9 C-6.75881648 5.74402242 -5.47775788 4.2723696 -3.125 2.1875 C-2.09375 1.465625 -1.0625 0.74375 0 0 Z " fill="#DFDFDF" transform="translate(111,146)"/>
<path d="M0 0 C2.625 0.375 2.625 0.375 5 1 C5.625 3.375 5.625 3.375 6 6 C5.34 6.66 4.68 7.32 4 8 C1.375 7.625 1.375 7.625 -1 7 C-1.625 4.625 -1.625 4.625 -2 2 C-1.34 1.34 -0.68 0.68 0 0 Z " fill="#DADADA" transform="translate(99,209)"/>
<path d="M0 0 C0.33 0 0.66 0 1 0 C1.33 9.24 1.66 18.48 2 28 C2.66 28 3.32 28 4 28 C3.30058404 31.14737182 2.23921302 34.02588876 1 37 C0.67 37 0.34 37 0 37 C0 24.79 0 12.58 0 0 Z " fill="#111111" transform="translate(155,153)"/>
<path d="M0 0 C4.29 0 8.58 0 13 0 C13 0.33 13 0.66 13 1 C11.02 1 9.04 1 7 1 C6.7525 1.70125 6.505 2.4025 6.25 3.125 C4.83711898 6.37462636 2.9916087 9.07482472 1 12 C0.30570621 13.3191582 -0.37530495 14.64649406 -1 16 C-1.68359375 14.328125 -1.68359375 14.328125 -2 12 C-0.78515625 9.421875 -0.78515625 9.421875 0.9375 6.75 C1.50339844 5.85796875 2.06929687 4.9659375 2.65234375 4.046875 C3.09707031 3.37140625 3.54179688 2.6959375 4 2 C2.68 2 1.36 2 0 2 C0 1.34 0 0.68 0 0 Z " fill="#3D3D3D" transform="translate(556,136)"/>
<path d="M0 0 C0.33 0 0.66 0 1 0 C1 3.63 1 7.26 1 11 C-1.64 11 -4.28 11 -7 11 C-6.34 9.68 -5.68 8.36 -5 7 C-4.34 7 -3.68 7 -3 7 C-1.79371992 4.66785852 -0.8345262 2.50357861 0 0 Z " fill="#191919" transform="translate(523,163)"/>
<path d="M0 0 C4.29 0 8.58 0 13 0 C13 0.33 13 0.66 13 1 C11.515 1.2165625 11.515 1.2165625 10 1.4375 C5.16343957 2.747607 2.73337461 6.32227995 -0.30078125 10.1015625 C-0.86152344 10.72804687 -1.42226563 11.35453125 -2 12 C-2.66 12 -3.32 12 -4 12 C-2.63629701 9.00779732 -1.05091917 6.70973471 1.125 4.25 C1.66382813 3.63640625 2.20265625 3.0228125 2.7578125 2.390625 C3.37269531 1.70226562 3.37269531 1.70226562 4 1 C2.68 0.67 1.36 0.34 0 0 Z " fill="#444444" transform="translate(408,136)"/>
<path d="M0 0 C2.37948772 0.17625835 3.70225849 0.69719773 5.37890625 2.40234375 C6.62115486 3.90649092 7.81376056 5.45129851 9 7 C8.01 8.32 7.02 9.64 6 11 C2.06153846 7.67692308 2.06153846 7.67692308 1.75 4.25 C1.8325 3.5075 1.915 2.765 2 2 C0.68 2.33 -0.64 2.66 -2 3 C-1.34 2.01 -0.68 1.02 0 0 Z " fill="#D8D8D8" transform="translate(126,132)"/>
<path d="M0 0 C0.33 0.99 0.66 1.98 1 3 C1.99 2.67 2.98 2.34 4 2 C4 2.99 4 3.98 4 5 C0.5647952 7.29013653 -0.985331 7.17842973 -5 7 C-5 5.68 -5 4.36 -5 3 C-2.5 1.25 -2.5 1.25 0 0 Z " fill="#040404" transform="translate(414,167)"/>
<path d="M0 0 C1.65 1.32 3.3 2.64 5 4 C4.875 5.875 4.875 5.875 4 8 C1.0625 9.1875 1.0625 9.1875 -2 10 C-2.99 10.495 -2.99 10.495 -4 11 C-3.52269162 9.5410574 -3.04308958 8.08286504 -2.5625 6.625 C-2.29566406 5.81289062 -2.02882813 5.00078125 -1.75390625 4.1640625 C-1 2 -1 2 0 0 Z " fill="#727272" transform="translate(83,137)"/>
<path d="M0 0 C0.33 0 0.66 0 1 0 C1.33 2.97 1.66 5.94 2 9 C8.6 9.33 15.2 9.66 22 10 C22 10.33 22 10.66 22 11 C11.605 11.495 11.605 11.495 1 12 C-1.49388574 7.01222852 -0.88836125 5.33016752 0 0 Z " fill="#3F3F3F" transform="translate(105,187)"/>
<path d="M0 0 C0.66 0 1.32 0 2 0 C2 2.97 2 5.94 2 9 C-0.64 9 -3.28 9 -6 9 C-5.38125 8.443125 -4.7625 7.88625 -4.125 7.3125 C-1.93893621 4.93354822 -1.01214301 3.03642904 0 0 Z " fill="#0A0A0A" transform="translate(147,183)"/>
<path d="M0 0 C2.97 0 5.94 0 9 0 C6.19195732 2.96404505 3.81684226 5.44499019 0 7 C-1.125 2.25 -1.125 2.25 0 0 Z " fill="#030303" transform="translate(157,117)"/>
<path d="M0 0 C5.28 0 10.56 0 16 0 C16 0.33 16 0.66 16 1 C13.03 1 10.06 1 7 1 C7 1.99 7 2.98 7 4 C4.69 4 2.38 4 0 4 C0 2.68 0 1.36 0 0 Z " fill="#DFDFDF" transform="translate(158,113)"/>
<path d="M0 0 C0.66 0 1.32 0 2 0 C2.33 3.3 2.66 6.6 3 10 C0.525 9.01 0.525 9.01 -2 8 C-1.125 2.25 -1.125 2.25 0 0 Z " fill="#272727" transform="translate(86,131)"/>
<path d="M0 0 C2.21399303 3.79541663 3.00980198 7.75629421 4 12 C3.34 12 2.68 12 2 12 C1.67 12.99 1.34 13.98 1 15 C-1.44723163 9.95258476 -1.77882289 5.33646866 0 0 Z " fill="#B0B0B0" transform="translate(99,176)"/>
<path d="M0 0 C2.875 0.3125 2.875 0.3125 6 1 C6.66 1.99 7.32 2.98 8 4 C7.195625 4.268125 6.39125 4.53625 5.5625 4.8125 C4.716875 5.204375 3.87125 5.59625 3 6 C2.67 6.99 2.34 7.98 2 9 C1.34 6.03 0.68 3.06 0 0 Z " fill="#1A1A1A" transform="translate(358,137)"/>
<path d="M0 0 C1.33417969 0.14888672 1.33417969 0.14888672 2.6953125 0.30078125 C1.88320313 0.62175781 1.88320313 0.62175781 1.0546875 0.94921875 C-2.1439672 2.78156068 -4.51433234 5.29874731 -7.0546875 7.92578125 C-7.81458984 8.69921875 -7.81458984 8.69921875 -8.58984375 9.48828125 C-9.83272652 10.75461464 -11.06934026 12.02709565 -12.3046875 13.30078125 C-12.3046875 9.25518886 -10.81309901 8.12475679 -8.1796875 5.11328125 C-7.41398437 4.21222656 -6.64828125 3.31117188 -5.859375 2.3828125 C-3.3046875 0.30078125 -3.3046875 0.30078125 0 0 Z " fill="#C8C8C8" transform="translate(418.3046875,136.69921875)"/>
<path d="M0 0 C0.66 0.33 1.32 0.66 2 1 C-2.29 5.29 -6.58 9.58 -11 14 C-11.66 13.67 -12.32 13.34 -13 13 C-9.0580583 8.11950075 -4.88049925 3.9419417 0 0 Z " fill="#2C2C2C" transform="translate(74,79)"/>
<path d="M0 0 C0.33 0 0.66 0 1 0 C1 1.98 1 3.96 1 6 C-2.3 6 -5.6 6 -9 6 C-4.5 2.625 -4.5 2.625 0 3 C0 2.01 0 1.02 0 0 Z " fill="#0B0B0B" transform="translate(293,168)"/>
<path d="M0 0 C1.17755859 -0.02126953 1.17755859 -0.02126953 2.37890625 -0.04296875 C4.4375 0.1875 4.4375 0.1875 6.4375 2.1875 C3.63592552 3.12135816 1.78302197 3.35104595 -1.125 3.375 C-2.30255859 3.39626953 -2.30255859 3.39626953 -3.50390625 3.41796875 C-5.5625 3.1875 -5.5625 3.1875 -7.5625 1.1875 C-4.76092552 0.25364184 -2.90802197 0.02395405 0 0 Z " fill="#434343" transform="translate(352.5625,172.8125)"/>
<path d="M0 0 C1.32 0.33 2.64 0.66 4 1 C4 2.98 4 4.96 4 7 C3.01 7 2.02 7 1 7 C0 6 0 6 -0.0625 2.9375 C-0.041875 1.968125 -0.02125 0.99875 0 0 Z " fill="#161616" transform="translate(306,165)"/>
<path d="M0 0 C1.65 0.33 3.3 0.66 5 1 C4.67 2.32 4.34 3.64 4 5 C2.35 4.67 0.7 4.34 -1 4 C-0.67 2.68 -0.34 1.36 0 0 Z " fill="#C8C8C8" transform="translate(68,100)"/>
<path d="M0 0 C1.32 0 2.64 0 4 0 C4 1.65 4 3.3 4 5 C2.35 5 0.7 5 -1 5 C-0.67 3.35 -0.34 1.7 0 0 Z " fill="#D0D0D0" transform="translate(57,160)"/>
<path d="M0 0 C0.33 0 0.66 0 1 0 C1.33 3.3 1.66 6.6 2 10 C1.01 10.66 0.02 11.32 -1 12 C-1.66 8.7 -2.32 5.4 -3 2 C-2.34 2 -1.68 2 -1 2 C-0.67 1.34 -0.34 0.68 0 0 Z " fill="#A2A2A2" transform="translate(81,74)"/>
<path d="M0 0 C2.31 0 4.62 0 7 0 C7 1.98 7 3.96 7 6 C5.83054208 5.19152271 4.66449539 4.37810888 3.5 3.5625 C2.8503125 3.11003906 2.200625 2.65757812 1.53125 2.19140625 C1.0259375 1.79824219 0.520625 1.40507812 0 1 C0 0.67 0 0.34 0 0 Z " fill="#090909" transform="translate(514,137)"/>
<path d="M0 0 C4.29 0 8.58 0 13 0 C13 0.33 13 0.66 13 1 C11.3603125 1.433125 11.3603125 1.433125 9.6875 1.875 C5.95986155 2.81893204 5.95986155 2.81893204 3 5 C3.33 3.68 3.66 2.36 4 1 C2.68 0.67 1.36 0.34 0 0 Z " fill="#1D1D1D" transform="translate(408,136)"/>
<path d="M0 0 C2.01822917 0.06510417 4.03645833 0.13020833 6.0546875 0.1953125 C6.0546875 0.5253125 6.0546875 0.8553125 6.0546875 1.1953125 C3.7446875 1.1953125 1.4346875 1.1953125 -0.9453125 1.1953125 C-1.2340625 1.7934375 -1.5228125 2.3915625 -1.8203125 3.0078125 C-2.9453125 5.1953125 -2.9453125 5.1953125 -4.9453125 8.1953125 C-3.92779658 0.39435709 -3.92779658 0.39435709 0 0 Z " fill="#BEBEBE" transform="translate(349.9453125,136.8046875)"/>
<path d="M0 0 C0.66 0.33 1.32 0.66 2 1 C2 1.66 2 2.32 2 3 C-0.31 4.32 -2.62 5.64 -5 7 C-5 4 -5 4 -3 2 C-2.01 2 -1.02 2 0 2 C0 1.34 0 0.68 0 0 Z " fill="#131313" transform="translate(194,99)"/>
<path d="M0 0 C0.33 0.99 0.66 1.98 1 3 C-0.98 4.98 -2.96 6.96 -5 9 C-5.66 8.67 -6.32 8.34 -7 8 C-4.69 5.36 -2.38 2.72 0 0 Z " fill="#C5C5C5" transform="translate(122,69)"/>
<path d="M0 0 C0.66 0 1.32 0 2 0 C3.1577506 3.47325181 3.06866652 6.36067448 3 10 C0.70366176 6.55549263 0.45983515 4.06187717 0 0 Z " fill="#DDDDDD" transform="translate(101,188)"/>
<path d="M0 0 C0.99 0.495 0.99 0.495 2 1 C2.40729228 3.32156597 2.74438677 5.6568787 3 8 C2.01 8.33 1.02 8.66 0 9 C0 6.03 0 3.06 0 0 Z " fill="#C6C6C6" transform="translate(91,144)"/>
<path d="M0 0 C2.31 0 4.62 0 7 0 C5.35 1.65 3.7 3.3 2 5 C0 1.125 0 1.125 0 0 Z " fill="#424242" transform="translate(159,117)"/>
<path d="M0 0 C2.64 0 5.28 0 8 0 C6.25 3.875 6.25 3.875 4 5 C4 3.68 4 2.36 4 1 C2.68 0.67 1.36 0.34 0 0 Z " fill="#424242" transform="translate(121,61)"/>
<path d="M0 0 C1.875 0.3125 1.875 0.3125 4 1 C4.66 1.99 5.32 2.98 6 4 C3.69 3.67 1.38 3.34 -1 3 C-0.67 2.01 -0.34 1.02 0 0 Z " fill="#E2E2E2" transform="translate(138,59)"/>
<path d="M0 0 C0.94875 0.04125 1.8975 0.0825 2.875 0.125 C2.2975 0.351875 1.72 0.57875 1.125 0.8125 C-1.6913661 2.45538023 -3.20577114 4.52033227 -5.125 7.125 C-5.25 4.75 -5.25 4.75 -5.125 2.125 C-3.125 0.125 -3.125 0.125 0 0 Z " fill="#C8C8C8" transform="translate(93.125,87.875)"/>
</svg>
